<svg width="23" height="23" viewBox="0 0 23 23" fill="none" xmlns="http://www.w3.org/2000/svg">
<path d="M7.463 14.1704C7.59333 14.049 7.7657 13.9829 7.94381 13.986C8.12192 13.9892 8.29186 14.0613 8.41782 14.1873C8.54378 14.3133 8.61593 14.4832 8.61908 14.6613C8.62222 14.8394 8.55611 15.0118 8.43467 15.1421L5.59758 17.9783H7.60417C7.7703 17.9783 7.93081 18.0384 8.05602 18.1476C8.18123 18.2568 8.26266 18.4077 8.28525 18.5723L8.29167 18.6658C8.29167 18.8481 8.21923 19.023 8.0903 19.1519C7.96137 19.2808 7.7865 19.3533 7.60417 19.3533H3.9375C3.75516 19.3533 3.5803 19.2808 3.45136 19.1519C3.32243 19.023 3.25 18.8481 3.25 18.6658V14.9991C3.25 14.8168 3.32243 14.6419 3.45136 14.513C3.5803 14.384 3.75516 14.3116 3.9375 14.3116C4.11984 14.3116 4.2947 14.384 4.42364 14.513C4.55257 14.6419 4.625 14.8168 4.625 14.9991V17.0066L7.463 14.1704ZM15.4004 19.3533C15.2181 19.3533 15.0432 19.2808 14.9143 19.1519C14.7853 19.023 14.7129 18.8481 14.7129 18.6658C14.7129 18.4834 14.7853 18.3086 14.9143 18.1796C15.0432 18.0507 15.2181 17.9783 15.4004 17.9783H17.4042L14.5708 15.1421C14.4544 15.0257 14.3836 14.8714 14.3713 14.7072C14.359 14.543 14.4061 14.3799 14.5039 14.2474L14.5708 14.1704C14.6997 14.0417 14.8745 13.9694 15.0567 13.9694C15.2389 13.9694 15.4136 14.0417 15.5425 14.1704L18.3796 17.0084V14.9991C18.3796 14.833 18.4398 14.6725 18.549 14.5473C18.6582 14.422 18.809 14.3406 18.9736 14.318L19.0671 14.3116C19.2494 14.3116 19.4243 14.384 19.5532 14.513C19.6821 14.6419 19.7546 14.8168 19.7546 14.9991V18.6658C19.7546 18.8481 19.6821 19.023 19.5532 19.1519C19.4243 19.2808 19.2494 19.3533 19.0671 19.3533H15.4004ZM7.60417 2.84961C7.7865 2.84961 7.96137 2.92204 8.0903 3.05097C8.21923 3.1799 8.29167 3.35477 8.29167 3.53711C8.29167 3.71945 8.21923 3.89431 8.0903 4.02325C7.96137 4.15218 7.7865 4.22461 7.60417 4.22461H5.59942L8.43467 7.06169C8.55096 7.17821 8.62159 7.3326 8.6337 7.49678C8.64581 7.66096 8.5986 7.82403 8.50067 7.95636L8.43375 8.03428C8.30484 8.16302 8.1301 8.23534 7.94792 8.23534C7.76573 8.23534 7.59099 8.16302 7.46208 8.03428L4.625 5.19353V7.20378C4.62499 7.36991 4.56483 7.53042 4.45563 7.65563C4.34643 7.78084 4.19559 7.86227 4.031 7.88486L3.9375 7.89128C3.75516 7.89128 3.5803 7.81884 3.45136 7.68991C3.32243 7.56098 3.25 7.38611 3.25 7.20378V3.53711C3.25 3.35477 3.32243 3.1799 3.45136 3.05097C3.5803 2.92204 3.75516 2.84961 3.9375 2.84961H7.60417ZM19.0671 2.84961C19.2494 2.84961 19.4243 2.92204 19.5532 3.05097C19.6821 3.1799 19.7546 3.35477 19.7546 3.53711V7.20378C19.7546 7.38611 19.6821 7.56098 19.5532 7.68991C19.4243 7.81884 19.2494 7.89128 19.0671 7.89128C18.8847 7.89128 18.7099 7.81884 18.5809 7.68991C18.452 7.56098 18.3796 7.38611 18.3796 7.20378V5.19536L15.5425 8.03336C15.4261 8.14979 15.2718 8.22058 15.1076 8.23286C14.9434 8.24514 14.7803 8.1981 14.6478 8.10028L14.5708 8.03336C14.4421 7.90445 14.3698 7.72971 14.3698 7.54753C14.3698 7.36534 14.4421 7.1906 14.5708 7.06169L17.4052 4.22461H15.4004C15.2343 4.2246 15.0738 4.16444 14.9486 4.05524C14.8234 3.94604 14.7419 3.7952 14.7193 3.63061L14.7129 3.53711C14.7129 3.35477 14.7853 3.1799 14.9143 3.05097C15.0432 2.92204 15.2181 2.84961 15.4004 2.84961H19.0671Z" fill="white"/>
</svg>
