<svg width="21" height="22" viewBox="0 0 21 22" fill="none" xmlns="http://www.w3.org/2000/svg">
<g clip-path="url(#clip0_492_12958)">
<path d="M5.59294 11.2503L9.59294 14.5837L14.9263 7.91699M10.2596 20.5837C9.03393 20.5837 7.82026 20.3422 6.68789 19.8732C5.55552 19.4042 4.52662 18.7167 3.65994 17.85C2.79326 16.9833 2.10577 15.9544 1.63673 14.822C1.16768 13.6897 0.92627 12.476 0.92627 11.2503C0.92627 10.0247 1.16768 8.81099 1.63673 7.67861C2.10577 6.54624 2.79326 5.51734 3.65994 4.65066C4.52662 3.78398 5.55552 3.09649 6.68789 2.62745C7.82026 2.15841 9.03393 1.91699 10.2596 1.91699C12.735 1.91699 15.1089 2.90032 16.8593 4.65066C18.6096 6.401 19.5929 8.77497 19.5929 11.2503C19.5929 13.7257 18.6096 16.0996 16.8593 17.85C15.1089 19.6003 12.735 20.5837 10.2596 20.5837Z" stroke="#40B735" stroke-width="1.4"/>
</g>
<defs>
<clipPath id="clip0_492_12958">
<rect width="20" height="20" fill="white" transform="translate(0.259766 1.25)"/>
</clipPath>
</defs>
</svg>
