<svg width="37" height="37" viewBox="0 0 37 37" fill="none" xmlns="http://www.w3.org/2000/svg">
<path d="M7.424 27.5996C6.733 27.5996 6.1565 27.3686 5.6945 26.9066C5.2325 26.4446 5.001 25.8676 5 25.1756V12.0236C5 11.3326 5.2315 10.7561 5.6945 10.2941C6.1575 9.83211 6.7335 9.60061 7.4225 9.59961H29.5775C30.2675 9.59961 30.8435 9.83111 31.3055 10.2941C31.7675 10.7571 31.999 11.3336 32 12.0236V25.1771C32 25.8671 31.7685 26.4436 31.3055 26.9066C30.8425 27.3696 30.2665 27.6006 29.5775 27.5996H7.424ZM7.424 26.0996H29.5775C29.8075 26.0996 30.019 26.0036 30.212 25.8116C30.405 25.6196 30.501 25.4076 30.5 25.1756V12.0236C30.5 11.7926 30.404 11.5806 30.212 11.3876C30.02 11.1946 29.8085 11.0986 29.5775 11.0996H7.4225C7.1925 11.0996 6.981 11.1956 6.788 11.3876C6.595 11.5796 6.499 11.7916 6.5 12.0236V25.1771C6.5 25.4071 6.596 25.6186 6.788 25.8116C6.98 26.0046 7.1915 26.1006 7.4225 26.0996M14 24.2546H23C23.31 24.2546 23.58 24.1441 23.81 23.9231C24.04 23.7031 24.155 23.4286 24.155 23.0996C24.155 22.7896 24.04 22.5196 23.81 22.2896C23.58 22.0596 23.31 21.9446 23 21.9446H14C13.69 21.9446 13.42 22.0551 13.19 22.2761C12.96 22.4961 12.845 22.7706 12.845 23.0996C12.845 23.4096 12.96 23.6796 13.19 23.9096C13.42 24.1396 13.69 24.2546 14 24.2546ZM9.5 15.2546C9.81 15.2546 10.08 15.1396 10.31 14.9096C10.54 14.6796 10.655 14.4096 10.655 14.0996C10.655 13.7896 10.54 13.5196 10.31 13.2896C10.08 13.0596 9.81 12.9446 9.5 12.9446C9.19 12.9446 8.92 13.0596 8.69 13.2896C8.46 13.5196 8.345 13.7896 8.345 14.0996C8.345 14.4096 8.46 14.6796 8.69 14.9096C8.92 15.1396 9.19 15.2546 9.5 15.2546ZM14 15.2546C14.31 15.2546 14.58 15.1396 14.81 14.9096C15.04 14.6796 15.155 14.4096 15.155 14.0996C15.155 13.7896 15.04 13.5196 14.81 13.2896C14.58 13.0596 14.31 12.9446 14 12.9446C13.69 12.9446 13.42 13.0596 13.19 13.2896C12.96 13.5196 12.845 13.7896 12.845 14.0996C12.845 14.4096 12.96 14.6796 13.19 14.9096C13.42 15.1396 13.69 15.2546 14 15.2546ZM18.5 15.2546C18.81 15.2546 19.08 15.1396 19.31 14.9096C19.54 14.6796 19.655 14.4096 19.655 14.0996C19.655 13.7896 19.54 13.5196 19.31 13.2896C19.08 13.0596 18.81 12.9446 18.5 12.9446C18.19 12.9446 17.92 13.0596 17.69 13.2896C17.46 13.5196 17.345 13.7896 17.345 14.0996C17.345 14.4096 17.46 14.6796 17.69 14.9096C17.92 15.1396 18.19 15.2546 18.5 15.2546ZM23 15.2546C23.31 15.2546 23.58 15.1396 23.81 14.9096C24.04 14.6796 24.155 14.4096 24.155 14.0996C24.155 13.7896 24.04 13.5196 23.81 13.2896C23.58 13.0596 23.31 12.9446 23 12.9446C22.69 12.9446 22.42 13.0596 22.19 13.2896C21.96 13.5196 21.845 13.7896 21.845 14.0996C21.845 14.4096 21.96 14.6796 22.19 14.9096C22.42 15.1396 22.69 15.2546 23 15.2546ZM27.5 15.2546C27.81 15.2546 28.08 15.1396 28.31 14.9096C28.54 14.6796 28.655 14.4096 28.655 14.0996C28.655 13.7896 28.54 13.5196 28.31 13.2896C28.08 13.0596 27.81 12.9446 27.5 12.9446C27.19 12.9446 26.92 13.0596 26.69 13.2896C26.46 13.5196 26.345 13.7896 26.345 14.0996C26.345 14.4096 26.46 14.6796 26.69 14.9096C26.92 15.1396 27.19 15.2546 27.5 15.2546ZM9.5 19.7546C9.81 19.7546 10.08 19.6396 10.31 19.4096C10.54 19.1796 10.655 18.9096 10.655 18.5996C10.655 18.2896 10.54 18.0196 10.31 17.7896C10.08 17.5596 9.81 17.4446 9.5 17.4446C9.19 17.4446 8.92 17.5596 8.69 17.7896C8.46 18.0196 8.345 18.2896 8.345 18.5996C8.345 18.9096 8.46 19.1796 8.69 19.4096C8.92 19.6396 9.19 19.7546 9.5 19.7546ZM14 19.7546C14.31 19.7546 14.58 19.6396 14.81 19.4096C15.04 19.1796 15.155 18.9096 15.155 18.5996C15.155 18.2896 15.04 18.0196 14.81 17.7896C14.58 17.5596 14.31 17.4446 14 17.4446C13.69 17.4446 13.42 17.5596 13.19 17.7896C12.96 18.0196 12.845 18.2896 12.845 18.5996C12.845 18.9096 12.96 19.1796 13.19 19.4096C13.42 19.6396 13.69 19.7546 14 19.7546ZM18.5 19.7546C18.81 19.7546 19.08 19.6396 19.31 19.4096C19.54 19.1796 19.655 18.9096 19.655 18.5996C19.655 18.2896 19.54 18.0196 19.31 17.7896C19.08 17.5596 18.81 17.4446 18.5 17.4446C18.19 17.4446 17.92 17.5596 17.69 17.7896C17.46 18.0196 17.345 18.2896 17.345 18.5996C17.345 18.9096 17.46 19.1796 17.69 19.4096C17.92 19.6396 18.19 19.7546 18.5 19.7546ZM23 19.7546C23.31 19.7546 23.58 19.6396 23.81 19.4096C24.04 19.1796 24.155 18.9096 24.155 18.5996C24.155 18.2896 24.04 18.0196 23.81 17.7896C23.58 17.5596 23.31 17.4446 23 17.4446C22.69 17.4446 22.42 17.5596 22.19 17.7896C21.96 18.0196 21.845 18.2896 21.845 18.5996C21.845 18.9096 21.96 19.1796 22.19 19.4096C22.42 19.6396 22.69 19.7546 23 19.7546ZM27.5 19.7546C27.81 19.7546 28.08 19.6396 28.31 19.4096C28.54 19.1796 28.655 18.9096 28.655 18.5996C28.655 18.2896 28.54 18.0196 28.31 17.7896C28.08 17.5596 27.81 17.4446 27.5 17.4446C27.19 17.4446 26.92 17.5596 26.69 17.7896C26.46 18.0196 26.345 18.2896 26.345 18.5996C26.345 18.9096 26.46 19.1796 26.69 19.4096C26.92 19.6396 27.19 19.7546 27.5 19.7546Z" fill="#32414E"/>
</svg>
