<svg width="26" height="27" viewBox="0 0 26 27" fill="none" xmlns="http://www.w3.org/2000/svg">
<path d="M8.125 5.47461C8.125 5.79601 8.0297 6.11018 7.85114 6.37741C7.67258 6.64464 7.41879 6.85292 7.12186 6.97591C6.82493 7.09891 6.4982 7.13109 6.18298 7.06839C5.86776 7.00569 5.57821 6.85092 5.35095 6.62366C5.12369 6.3964 4.96893 6.10685 4.90622 5.79163C4.84352 5.47641 4.8757 5.14968 4.9987 4.85275C5.12169 4.55582 5.32997 4.30203 5.5972 4.12347C5.86443 3.94491 6.17861 3.84961 6.5 3.84961C6.93098 3.84961 7.3443 4.02082 7.64905 4.32556C7.9538 4.63031 8.125 5.04363 8.125 5.47461ZM13 3.84961C12.6786 3.84961 12.3644 3.94491 12.0972 4.12347C11.83 4.30203 11.6217 4.55582 11.4987 4.85275C11.3757 5.14968 11.3435 5.47641 11.4062 5.79163C11.4689 6.10685 11.6237 6.3964 11.851 6.62366C12.0782 6.85092 12.3678 7.00569 12.683 7.06839C12.9982 7.13109 13.3249 7.09891 13.6219 6.97591C13.9188 6.85292 14.1726 6.64464 14.3511 6.37741C14.5297 6.11018 14.625 5.79601 14.625 5.47461C14.625 5.04363 14.4538 4.63031 14.149 4.32556C13.8443 4.02082 13.431 3.84961 13 3.84961ZM19.5 7.09961C19.8214 7.09961 20.1356 7.00431 20.4028 6.82575C20.67 6.64719 20.8783 6.3934 21.0013 6.09647C21.1243 5.79954 21.1565 5.47281 21.0938 5.15759C21.0311 4.84237 20.8763 4.55282 20.649 4.32556C20.4218 4.0983 20.1322 3.94354 19.817 3.88083C19.5018 3.81813 19.1751 3.85031 18.8781 3.97331C18.5812 4.0963 18.3274 4.30458 18.1489 4.57181C17.9703 4.83904 17.875 5.15322 17.875 5.47461C17.875 5.90559 18.0462 6.31891 18.351 6.62366C18.6557 6.92841 19.069 7.09961 19.5 7.09961ZM6.5 9.53711C6.17861 9.53711 5.86443 9.63241 5.5972 9.81097C5.32997 9.98953 5.12169 10.2433 4.9987 10.5402C4.8757 10.8372 4.84352 11.1639 4.90622 11.4791C4.96893 11.7944 5.12369 12.0839 5.35095 12.3112C5.57821 12.5384 5.86776 12.6932 6.18298 12.7559C6.4982 12.8186 6.82493 12.7864 7.12186 12.6634C7.41879 12.5404 7.67258 12.3321 7.85114 12.0649C8.0297 11.7977 8.125 11.4835 8.125 11.1621C8.125 10.7311 7.9538 10.3178 7.64905 10.0131C7.3443 9.70832 6.93098 9.53711 6.5 9.53711ZM13 9.53711C12.6786 9.53711 12.3644 9.63241 12.0972 9.81097C11.83 9.98953 11.6217 10.2433 11.4987 10.5402C11.3757 10.8372 11.3435 11.1639 11.4062 11.4791C11.4689 11.7944 11.6237 12.0839 11.851 12.3112C12.0782 12.5384 12.3678 12.6932 12.683 12.7559C12.9982 12.8186 13.3249 12.7864 13.6219 12.6634C13.9188 12.5404 14.1726 12.3321 14.3511 12.0649C14.5297 11.7977 14.625 11.4835 14.625 11.1621C14.625 10.7311 14.4538 10.3178 14.149 10.0131C13.8443 9.70832 13.431 9.53711 13 9.53711ZM19.5 9.53711C19.1786 9.53711 18.8644 9.63241 18.5972 9.81097C18.33 9.98953 18.1217 10.2433 17.9987 10.5402C17.8757 10.8372 17.8435 11.1639 17.9062 11.4791C17.9689 11.7944 18.1237 12.0839 18.351 12.3112C18.5782 12.5384 18.8678 12.6932 19.183 12.7559C19.4982 12.8186 19.8249 12.7864 20.1219 12.6634C20.4188 12.5404 20.6726 12.3321 20.8511 12.0649C21.0297 11.7977 21.125 11.4835 21.125 11.1621C21.125 10.7311 20.9538 10.3178 20.649 10.0131C20.3443 9.70832 19.931 9.53711 19.5 9.53711ZM6.5 15.2246C6.17861 15.2246 5.86443 15.3199 5.5972 15.4985C5.32997 15.677 5.12169 15.9308 4.9987 16.2277C4.8757 16.5247 4.84352 16.8514 4.90622 17.1666C4.96893 17.4819 5.12369 17.7714 5.35095 17.9987C5.57821 18.2259 5.86776 18.3807 6.18298 18.4434C6.4982 18.5061 6.82493 18.4739 7.12186 18.3509C7.41879 18.2279 7.67258 18.0196 7.85114 17.7524C8.0297 17.4852 8.125 17.171 8.125 16.8496C8.125 16.4186 7.9538 16.0053 7.64905 15.7006C7.3443 15.3958 6.93098 15.2246 6.5 15.2246ZM13 15.2246C12.6786 15.2246 12.3644 15.3199 12.0972 15.4985C11.83 15.677 11.6217 15.9308 11.4987 16.2277C11.3757 16.5247 11.3435 16.8514 11.4062 17.1666C11.4689 17.4819 11.6237 17.7714 11.851 17.9987C12.0782 18.2259 12.3678 18.3807 12.683 18.4434C12.9982 18.5061 13.3249 18.4739 13.6219 18.3509C13.9188 18.2279 14.1726 18.0196 14.3511 17.7524C14.5297 17.4852 14.625 17.171 14.625 16.8496C14.625 16.4186 14.4538 16.0053 14.149 15.7006C13.8443 15.3958 13.431 15.2246 13 15.2246ZM13 20.9121C12.6786 20.9121 12.3644 21.0074 12.0972 21.186C11.83 21.3645 11.6217 21.6183 11.4987 21.9152C11.3757 22.2122 11.3435 22.5389 11.4062 22.8541C11.4689 23.1694 11.6237 23.4589 11.851 23.6862C12.0782 23.9134 12.3678 24.0682 12.683 24.1309C12.9982 24.1936 13.3249 24.1614 13.6219 24.0384C13.9188 23.9154 14.1726 23.7071 14.3511 23.4399C14.5297 23.1727 14.625 22.8585 14.625 22.5371C14.625 22.1061 14.4538 21.6928 14.149 21.3881C13.8443 21.0833 13.431 20.9121 13 20.9121ZM19.5 15.2246C19.1786 15.2246 18.8644 15.3199 18.5972 15.4985C18.33 15.677 18.1217 15.9308 17.9987 16.2277C17.8757 16.5247 17.8435 16.8514 17.9062 17.1666C17.9689 17.4819 18.1237 17.7714 18.351 17.9987C18.5782 18.2259 18.8678 18.3807 19.183 18.4434C19.4982 18.5061 19.8249 18.4739 20.1219 18.3509C20.4188 18.2279 20.6726 18.0196 20.8511 17.7524C21.0297 17.4852 21.125 17.171 21.125 16.8496C21.125 16.4186 20.9538 16.0053 20.649 15.7006C20.3443 15.3958 19.931 15.2246 19.5 15.2246Z" fill="black"/>
</svg>
