<svg width="32" height="33" viewBox="0 0 32 33" fill="none" xmlns="http://www.w3.org/2000/svg">
<rect y="0.0996094" width="32" height="32" rx="16" fill="#106C6B"/>
<path d="M24.5875 11.3434L22.6919 8.50898C22.5232 8.25586 22.2221 8.09961 21.9012 8.09961H10.0975C9.77657 8.09961 9.47552 8.25586 9.3068 8.50898L7.40787 11.3434C6.42864 12.8059 7.29539 14.8402 9.12485 15.0746C9.25718 15.0902 9.39281 15.0996 9.52514 15.0996C10.3886 15.0996 11.1561 14.7434 11.6821 14.1934C12.2081 14.7434 12.9756 15.0996 13.8391 15.0996C14.7025 15.0996 15.47 14.7434 15.996 14.1934C16.5221 14.7434 17.2896 15.0996 18.153 15.0996C19.0198 15.0996 19.784 14.7434 20.31 14.1934C20.8393 14.7434 21.6035 15.0996 22.4669 15.0996C22.6026 15.0996 22.7349 15.0902 22.8672 15.0746C24.7033 14.8434 25.5734 12.809 24.5908 11.3434H24.5875ZM23.0029 16.0652H22.9996C22.8242 16.0871 22.6456 16.0996 22.4636 16.0996C22.0534 16.0996 21.6597 16.0402 21.2925 15.934V20.0996H10.7062V15.9309C10.3357 16.0402 9.93867 16.0996 9.52845 16.0996C9.3465 16.0996 9.16454 16.0871 8.98921 16.0652H8.9859C8.85026 16.0465 8.71793 16.0246 8.58891 15.9934V22.0996C8.58891 23.2027 9.53837 24.0996 10.7062 24.0996H21.2925C22.4603 24.0996 23.4098 23.2027 23.4098 22.0996V15.9934C23.2775 16.0246 23.1451 16.0496 23.0029 16.0652Z" fill="white"/>
</svg>
