<svg width="23" height="23" viewBox="0 0 23 23" fill="none" xmlns="http://www.w3.org/2000/svg">
<path d="M15.6251 3.7666H7.83341C6.86095 3.7666 5.92832 4.15291 5.24069 4.84054C4.55306 5.52818 4.16675 6.46081 4.16675 7.43327V15.2249C4.16675 16.1974 4.55306 17.13 5.24069 17.8177C5.92832 18.5053 6.86095 18.8916 7.83341 18.8916H14.1062C14.5878 18.8916 15.0647 18.7968 15.5097 18.6124C15.9546 18.4281 16.3589 18.1579 16.6994 17.8173L18.2174 16.2993C18.558 15.9588 18.8282 15.5545 19.0126 15.1095C19.1969 14.6646 19.2918 14.1876 19.2917 13.706V7.43327C19.2917 6.46081 18.9054 5.52818 18.2178 4.84054C17.5302 4.15291 16.5975 3.7666 15.6251 3.7666Z" stroke="white" stroke-width="1.5" stroke-linecap="round" stroke-linejoin="round"/>
<path d="M19.2918 12.9336H16.0835C15.3542 12.9336 14.6547 13.2233 14.139 13.739C13.6232 14.2548 13.3335 14.9542 13.3335 15.6836V18.8919M7.8335 7.43359H14.7085M7.8335 11.1003H12.4168" stroke="white" stroke-width="1.5" stroke-linecap="round" stroke-linejoin="round"/>
</svg>
